<?xml version="1.0" encoding="utf-8"?>
<!-- Generator: Adobe Illustrator 24.0.1, SVG Export Plug-In . SVG Version: 6.00 Build 0)  -->
<svg version="1.1" id="Layer_1" xmlns="http://www.w3.org/2000/svg" xmlns:xlink="http://www.w3.org/1999/xlink" x="0px" y="0px"
	 viewBox="0 0 3081.2 521.3" style="enable-background:new 0 0 3081.2 521.3;" xml:space="preserve">
<style type="text/css">
	.st0{fill:none;}
	.st1{fill:#E52723;}
</style>
<line class="st0" x1="595.3" y1="791.5" x2="595.3" y2="726.8"/>
<path class="st1" d="M395.4,489.2c-85,0-170,0-255,0c-2.5-0.5-5-0.9-7.5-1.4c-23.4-5.2-41.4-25.5-43.1-49.5
	c-0.7-10-0.3-20.1-0.4-30.2c0-0.9,0-1.8,0-2.8c0.7-0.1,1.1-0.1,1.6-0.1c9.5,0,19,0.1,28.6,0c3.1,0,6.2-0.3,9.2-1
	c14.6-3.5,25-17.9,23.6-32.5c-1.4-16-13.4-28.4-28.8-29.2c-10.4-0.5-20.9-0.2-31.3-0.2c-0.9,0-1.8,0-2.7,0c0-16.5,0-32.7,0-49.1
	c1,0,1.9,0,2.7,0c9.8,0,19.5,0.1,29.3,0c19.4-0.4,33.9-18,30.4-37.1c-2.7-14.8-15.6-25.7-30.8-25.9c-9.7-0.1-19.5,0-29.3,0
	c-0.8,0-1.6-0.1-2.3-0.1c0-16.4,0-32.6,0-48.9c1,0,1.9,0,2.7,0c9.4,0,18.7,0.1,28.1,0c17.8-0.2,31.7-13.6,32-30.9
	c0.3-17.4-13.7-31.9-31.1-32c-9.7-0.1-19.5,0-29.3,0c-0.8,0-1.6,0-2.3,0c0-11.3-0.9-22.5,0.2-33.4c2.3-23.1,15.1-38.9,36.6-47.3
	c4.4-1.7,9.2-2.3,13.9-3.4c85,0,170,0,255,0c1.7,0.3,3.5,0.6,5.2,0.9c25.4,4.2,45.8,27.8,45.8,53.3c0.1,115.2,0,230.5,0,345.7
	c0,22.7-14.8,43.8-36.1,51.4C405.5,487.2,400.4,487.9,395.4,489.2z M194.4,355.9c56.1,0,112,0,168,0c0-7.9-0.1-15.5,0-23.2
	c0.3-32.9-25.4-59.8-58.3-60.5c-16.4-0.4-32.8-0.2-49.2,0c-4.8,0.1-9.6,0.5-14.2,1.6c-25.1,5.5-44.3,27.8-45.9,53.3
	c-0.5,7.9-0.3,15.9-0.4,23.9C194.4,352.6,194.4,354.2,194.4,355.9z M332.4,200c0-29.8-24.3-54-54.1-54c-29.8,0-53.8,24.3-53.9,54.2
	c0,29.5,24.1,53.8,53.7,53.9C308.1,254.2,332.4,230,332.4,200z"/>
<path class="st1" d="M103.4,244.1c5.8,0,11.6-0.1,17.4,0c9.4,0.2,16.5,6.7,17.5,16.1c0.9,8.1-4.9,16.2-13.2,18.3
	c-1.5,0.4-3.1,0.6-4.6,0.6c-11.5,0-23.1,0.1-34.6,0c-9.1-0.1-16.5-6.7-17.5-15.4c-1-8.7,4.6-17,13.2-19c2.5-0.6,5.2-0.5,7.8-0.6
	C94.1,244,98.8,244.1,103.4,244.1C103.4,244.1,103.4,244.1,103.4,244.1z"/>
<path class="st1" d="M103.5,167c-6.4,0-12.9,0.3-19.2-0.1c-9.3-0.5-16.1-8.6-15.8-18.1c0.3-8.9,7.8-16.5,16.8-16.6
	c12.1-0.2,24.1-0.2,36.2,0c9.3,0.1,16.8,7.8,17,17.2c0.2,9.1-6.9,17.2-16.2,17.7C116,167.3,109.8,167,103.5,167
	C103.5,167,103.5,167,103.5,167z"/>
<path class="st1" d="M103.4,391.1c-5.8,0-11.6,0-17.4,0c-9.4-0.1-17.2-7.5-17.5-16.6c-0.3-9.8,6.7-18,16.5-18.2
	c12.4-0.3,24.8-0.3,37.1,0c9.4,0.2,16.7,8.4,16.4,17.6c-0.2,9.5-7.8,17-17.2,17.2C115.3,391.2,109.3,391.1,103.4,391.1
	C103.4,391.1,103.4,391.1,103.4,391.1z"/>
<g>
	<path class="st1" d="M540.4,413.7l71.1-288.2h93l71.5,288.2h-47.1l-15.6-61.9H602.7l-15.6,61.9H540.4z M647.7,164.6l-35.8,146h92.2
		l-35.3-146H647.7z"/>
	<path class="st1" d="M981.4,115.8v297.9H936v-10.9c-20.5,10.4-39.3,15.6-56.4,15.6c-27.5,0-47.6-8.3-60.4-24.8
		c-12.8-16.5-19.1-44.3-19.1-83.3c0-39,7.1-67.3,21.2-85c14.2-17.7,36.3-26.5,66.3-26.5c10.1,0,26.1,1.8,48,5.5v-88.4H981.4z
		 M928.4,369.9l7.2-2.9V242.4c-16.8-2.8-32.4-4.2-46.7-4.2c-28.3,0-42.5,23.6-42.5,70.7c0,25.8,3.3,43.7,9.9,53.6
		c6.6,10,17,14.9,31.3,14.9C901.9,377.5,915.5,375,928.4,369.9z"/>
	<path class="st1" d="M1208.6,115.8v297.9h-45.4v-10.9c-20.5,10.4-39.3,15.6-56.4,15.6c-27.5,0-47.6-8.3-60.4-24.8
		c-12.8-16.5-19.1-44.3-19.1-83.3c0-39,7.1-67.3,21.2-85c14.2-17.7,36.3-26.5,66.3-26.5c10.1,0,26.1,1.8,48,5.5v-88.4H1208.6z
		 M1155.6,369.9l7.2-2.9V242.4c-16.8-2.8-32.4-4.2-46.7-4.2c-28.3,0-42.5,23.6-42.5,70.7c0,25.8,3.3,43.7,9.9,53.6
		c6.6,10,17,14.9,31.3,14.9S1142.7,375,1155.6,369.9z"/>
	<path class="st1" d="M1264.2,413.7V203.3h45.4v25.2c23.8-15.4,47.7-25.4,71.5-29.9v45.9c-24.1,4.8-44.7,10.9-61.9,18.5l-9.3,3.8
		v146.9H1264.2z"/>
	<path class="st1" d="M1564.2,375.8l11.8-1.3l0.8,34.1c-32,6.5-60.3,9.7-85,9.7c-31.1,0-53.5-8.6-67.1-25.7
		c-13.6-17.1-20.4-44.5-20.4-82.1c0-74.6,30.4-111.9,91.3-111.9c58.9,0,88.4,32.1,88.4,96.4l-2.9,32.8h-130.4
		c0.3,17.4,4.1,30.2,11.4,38.3c7.3,8.1,20.9,12.2,40.8,12.2C1522.7,378.3,1543.1,377.5,1564.2,375.8z M1538.9,292.5
		c0-20.8-3.3-35.3-9.9-43.6c-6.6-8.3-17.7-12.4-33.5-12.4c-15.7,0-27.1,4.4-34.3,13c-7.2,8.7-10.9,23-11.2,42.9H1538.9z"/>
	<path class="st1" d="M1774.2,246.6c-33.1-4.5-57.1-6.7-72-6.7c-14.9,0-25.2,1.8-30.9,5.3c-5.8,3.5-8.6,9-8.6,16.6
		c0,7.6,3.2,12.9,9.5,16c6.3,3.1,21.2,6.7,44.6,10.7c23.4,4.1,40,10.5,49.9,19.1c9.8,8.7,14.7,24.1,14.7,46.3
		c0,22.2-7.1,38.4-21.2,48.8c-14.2,10.4-34.9,15.6-62.1,15.6c-17.1,0-38.7-2.4-64.8-7.2l-13-2.1l1.7-38.3
		c33.7,4.5,57.9,6.7,72.8,6.7c14.9,0,25.5-1.8,31.8-5.5c6.3-3.6,9.5-9.7,9.5-18.1c0-8.4-3-14.2-9-17.5c-6-3.2-20.5-6.7-43.3-10.5
		c-22.9-3.8-39.6-9.7-50.3-17.9c-10.7-8.1-16-23-16-44.6c0-21.6,7.4-37.7,22.1-48.4c14.7-10.7,33.6-16,56.6-16
		c17.9,0,40,2.2,66.1,6.7l13,2.5L1774.2,246.6z"/>
	<path class="st1" d="M1971.5,246.6c-33.1-4.5-57.1-6.7-72-6.7c-14.9,0-25.2,1.8-30.9,5.3c-5.8,3.5-8.6,9-8.6,16.6
		c0,7.6,3.2,12.9,9.5,16c6.3,3.1,21.2,6.7,44.6,10.7c23.4,4.1,40,10.5,49.9,19.1c9.8,8.7,14.7,24.1,14.7,46.3
		c0,22.2-7.1,38.4-21.2,48.8c-14.2,10.4-34.9,15.6-62.1,15.6c-17.1,0-38.7-2.4-64.8-7.2l-13-2.1l1.7-38.3
		c33.7,4.5,57.9,6.7,72.8,6.7c14.9,0,25.5-1.8,31.8-5.5c6.3-3.6,9.5-9.7,9.5-18.1c0-8.4-3-14.2-9-17.5c-6-3.2-20.5-6.7-43.3-10.5
		c-22.9-3.8-39.6-9.7-50.3-17.9c-10.7-8.1-16-23-16-44.6c0-21.6,7.4-37.7,22.1-48.4c14.7-10.7,33.6-16,56.6-16
		c17.9,0,40,2.2,66.1,6.7l13,2.5L1971.5,246.6z"/>
	<path class="st1" d="M2120.9,125.4h109.4c29.5,0,51.5,6,66.1,17.9c14.6,11.9,21.9,30.9,21.9,57c0,17.1-2.7,30.6-8.2,40.4
		c-5.5,9.8-14.1,18-25.9,24.4c27.5,10.7,41.2,33,41.2,66.9c0,54.4-30.6,81.6-91.7,81.6h-112.8V125.4z M2227.7,165.8h-60.2v82.5h61.9
		c27.5,0,41.2-14.2,41.2-42.5C2270.7,179.2,2256.4,165.8,2227.7,165.8z M2230.3,287.9h-62.7v85.4h63.5c15.4,0,27-3.2,34.7-9.7
		c7.7-6.4,11.6-17.5,11.6-33.2c0-15.7-4.5-26.7-13.5-33C2254.9,291,2243.7,287.9,2230.3,287.9z"/>
	<path class="st1" d="M2384.5,226c14.4-18.2,38.5-27.4,72.2-27.4c33.7,0,57.7,9.1,72.2,27.4c14.4,18.2,21.7,45.6,21.7,82.1
		c0,36.5-7,64-21,82.5c-14,18.5-38.3,27.8-72.8,27.8c-34.5,0-58.8-9.3-72.8-27.8c-14-18.5-21-46-21-82.5
		C2362.8,271.6,2370,244.2,2384.5,226z M2418.8,362.8c6.4,11.2,19.1,16.8,37.9,16.8c18.8,0,31.4-5.6,37.9-16.8
		c6.5-11.2,9.7-29.6,9.7-55.1c0-25.5-3.4-43.6-10.3-54.3c-6.9-10.7-19.3-16-37.2-16c-18,0-30.4,5.3-37.2,16
		c-6.9,10.7-10.3,28.8-10.3,54.3C2409.1,333.2,2412.3,351.5,2418.8,362.8z"/>
	<path class="st1" d="M2607.5,226c14.4-18.2,38.5-27.4,72.2-27.4c33.7,0,57.7,9.1,72.2,27.4c14.4,18.2,21.7,45.6,21.7,82.1
		c0,36.5-7,64-21,82.5c-14,18.5-38.3,27.8-72.8,27.8c-34.5,0-58.8-9.3-72.8-27.8c-14-18.5-21-46-21-82.5
		C2585.8,271.6,2593,244.2,2607.5,226z M2641.8,362.8c6.4,11.2,19.1,16.8,37.9,16.8c18.8,0,31.4-5.6,37.9-16.8
		c6.5-11.2,9.7-29.6,9.7-55.1c0-25.5-3.4-43.6-10.3-54.3c-6.9-10.7-19.3-16-37.2-16c-18,0-30.4,5.3-37.2,16
		c-6.9,10.7-10.3,28.8-10.3,54.3C2632.1,333.2,2635.3,351.5,2641.8,362.8z"/>
	<path class="st1" d="M2864.8,413.7h-45.9V115.8h45.9v172.1l26.1-2.5l49.7-82.1h51.3l-60.6,98.5l64,111.9h-51.8l-51.3-88.8
		l-27.4,2.9V413.7z"/>
</g>
</svg>
