<?xml version="1.0" encoding="utf-8"?>
<!-- Generator: Adobe Illustrator 24.0.1, SVG Export Plug-In . SVG Version: 6.00 Build 0)  -->
<!DOCTYPE svg PUBLIC "-//W3C//DTD SVG 1.1//EN" "http://www.w3.org/Graphics/SVG/1.1/DTD/svg11.dtd" [
	<!ENTITY st0 "fill:none;">
	<!ENTITY st1 "fill:#339999;">
	<!ENTITY st2 "fill:#CD3333;">
	<!ENTITY st3 "fill:#444495;">
	<!ENTITY st4 "fill:#F39669;">
]>
<svg version="1.1" id="Layer_1" xmlns="http://www.w3.org/2000/svg" xmlns:xlink="http://www.w3.org/1999/xlink" x="0px" y="0px"
	 viewBox="0 0 1200 900" style="enable-background:new 0 0 1200 900;" xml:space="preserve">
<line style="&st0;" x1="600" y1="404.79" x2="600" y2="340.14"/>
<path style="&st1;" d="M500.57,348.28l99.81,0.75L568.48,522.7c-87.29-14.96-153.71-91-153.71-182.55
	c0-102.3,82.93-185.24,185.23-185.24c5.53,0,10.99,0.24,16.39,0.72L514.32,323.78L500.57,348.28z"/>
<path style="&st2;" d="M785.23,340.15c0,102.3-82.93,185.22-185.23,185.22c-4.93,0-9.82-0.19-14.65-0.57l114.08-217.44l-93.35-0.7
	l30.32-148.16C721.27,175.4,785.23,250.31,785.23,340.15z"/>
<path style="&st3;" d="M699.43,307.35L585.35,524.8c-5.7-0.44-11.32-1.15-16.87-2.1l31.89-173.67l-99.81-0.75l13.75-24.5
	l102.07-168.15c6.78,0.59,13.46,1.55,20.01,2.86l-30.32,148.16L699.43,307.35z"/>
<g>
	<g>
		<polygon style="&st4;" points="699.43,307.35 585.35,524.8 558.8,575.39 568.48,522.7 600.37,349.03 500.57,348.28 514.32,323.78 
			616.39,155.63 647.19,104.89 645.15,115.75 636.4,158.49 606.08,306.65 		"/>
	</g>
</g>
<path style="&st2;" d="M131.5,742.18V610.67h37.05l29.37,102.71l29.37-102.71h37.24v131.51h-21.5V634.29h-2.88l-31.1,102.52h-22.27
	l-31.1-102.52h-2.88v107.89H131.5z"/>
<path style="&st2;" d="M283.35,742.18l32.44-131.51h42.43l32.64,131.51h-21.5l-7.1-28.22h-50.49l-7.1,28.22H283.35z M332.31,628.53
	l-16.32,66.62h42.04l-16.13-66.62H332.31z"/>
<path style="&st2;" d="M421,610.67l28.22,51.83l28.6-51.83h22.46l-38.97,66.81l38.97,64.7h-23.81l-28.22-49.53l-28.8,49.53H397
	l39.16-63.55L397,610.67H421z"/>
<path style="&st1;" d="M632.94,610.67h22.27l-32.25,131.51h-41.85l-32.25-131.51h22.27l26.11,112.69h9.6L632.94,610.67z"/>
<path style="&st1;" d="M761.47,728.16c-7.87,10.75-21.73,16.13-41.56,16.13c-19.84,0-33.72-5.41-41.66-16.22
	c-7.94-10.81-11.9-27.8-11.9-50.97c0-23.16,4-40.38,12-51.64c8-11.26,21.85-16.89,41.56-16.89c19.71,0,33.53,5.6,41.47,16.8
	c7.93,11.2,11.9,28.45,11.9,51.74C773.28,700.39,769.34,717.41,761.47,728.16z M694.95,714.34c4.35,7.55,12.67,11.33,24.96,11.33
	c12.29,0,20.57-3.71,24.86-11.13c4.29-7.42,6.43-19.87,6.43-37.34c0-17.47-2.21-30.17-6.62-38.11c-4.41-7.93-12.64-11.9-24.67-11.9
	c-12.03,0-20.29,3.97-24.77,11.9c-4.48,7.94-6.72,20.57-6.72,37.92C688.42,694.34,690.6,706.79,694.95,714.34z"/>
<path style="&st1;" d="M871.76,742.18h-73.72V610.67h21.31v112.5h52.41V742.18z"/>
<path style="&st1;" d="M860.43,629.68v-19.01h95.99v19.01h-37.05v112.5h-21.5v-112.5H860.43z"/>
<path style="&st1;" d="M1012.67,627.18c-16.26,0-24.38,5.7-24.38,17.09c0,5.89,1.92,10.08,5.76,12.57
	c3.84,2.5,12.32,5.57,25.44,9.22c13.12,3.65,22.36,8,27.74,13.05c5.38,5.06,8.06,13.02,8.06,23.9c0,13.82-3.94,24.16-11.81,31
	c-7.87,6.85-18.59,10.27-32.16,10.27c-10.88,0-22.91-1.28-36.09-3.84l-6.91-1.34l2.11-17.09c17.28,2.3,30.46,3.46,39.55,3.46
	c15.87,0,23.8-7.04,23.8-21.12c0-5.5-1.79-9.57-5.38-12.19c-3.58-2.62-11.65-5.5-24.19-8.64c-12.54-3.13-21.89-7.45-28.03-12.96
	c-6.14-5.5-9.22-14.21-9.22-26.11c0-11.9,3.87-20.89,11.61-26.97c7.74-6.08,18.46-9.12,32.16-9.12c9.85,0,21.5,1.15,34.94,3.46
	l6.72,1.15l-1.73,17.28C1032.76,628.21,1020.09,627.18,1012.67,627.18z"/>
</svg>
