<?xml version="1.0" encoding="utf-8"?>
<!-- Generator: Adobe Illustrator 24.0.1, SVG Export Plug-In . SVG Version: 6.00 Build 0)  -->
<!DOCTYPE svg PUBLIC "-//W3C//DTD SVG 1.1//EN" "http://www.w3.org/Graphics/SVG/1.1/DTD/svg11.dtd" [
	<!ENTITY st0 "fill:none;">
	<!ENTITY st1 "fill:#E52723;">
	<!ENTITY st2 "fill:#203C89;">
	<!ENTITY st3 "fill:#444495;">
	<!ENTITY st4 "fill:#FFED00;">
]>
<svg version="1.1" id="Layer_1" xmlns="http://www.w3.org/2000/svg" xmlns:xlink="http://www.w3.org/1999/xlink" x="0px" y="0px"
	 viewBox="0 0 2434.11 521.28" style="enable-background:new 0 0 2434.11 521.28;" xml:space="preserve">
<line style="&st0;" x1="595.31" y1="791.48" x2="595.31" y2="726.83"/>
<g>
	<path style="&st1;" d="M157.45,267.33l101.17,0.76L226.3,444.14c-88.49-15.17-155.82-92.25-155.82-185.06
		c0-103.71,84.06-187.78,187.77-187.78c5.6,0,11.14,0.25,16.62,0.73L171.39,242.49L157.45,267.33z"/>
	<path style="&st2;" d="M446.02,259.09c0,103.7-84.07,187.76-187.77,187.76c-5,0-9.96-0.2-14.85-0.58l115.64-220.42l-94.63-0.71
		l30.74-150.19C381.18,92.08,446.02,168.01,446.02,259.09z"/>
	<path style="&st3;" d="M359.04,225.84L243.39,446.27c-5.78-0.45-11.48-1.16-17.1-2.13l32.33-176.05l-101.17-0.76l13.94-24.84
		L274.86,72.04c6.87,0.6,13.64,1.57,20.28,2.9l-30.74,150.19L359.04,225.84z"/>
	<g>
		<g>
			<polygon style="&st4;" points="359.04,225.84 243.39,446.27 216.48,497.56 226.3,444.14 258.62,268.09 157.45,267.33 
				171.39,242.49 274.86,72.04 306.08,20.61 304.02,31.61 295.15,74.94 264.41,225.13 			"/>
		</g>
	</g>
</g>
<g>
	<path style="&st2;" d="M530.65,405.72V117.49h81.21l64.38,225.12l64.38-225.12h81.63v288.23h-47.13V169.25h-6.31l-68.17,224.7
		h-48.81l-68.17-224.7h-6.31v236.48H530.65z"/>
	<path style="&st2;" d="M1038.53,260.14v95.94c0.28,6.17,1.89,10.73,4.84,13.68c2.95,2.95,7.5,4.84,13.67,5.68l-1.26,34.92
		c-24.13,0-42.78-5.19-55.96-15.57c-22.45,10.38-45.02,15.57-67.75,15.57c-41.8,0-62.7-22.3-62.7-66.9
		c0-21.31,5.68-36.75,17.04-46.29c11.36-9.53,28.82-15.29,52.39-17.25l54.28-4.63v-15.15c0-11.22-2.46-19.07-7.36-23.56
		c-4.91-4.48-12.14-6.73-21.67-6.73c-17.96,0-40.39,1.12-67.32,3.37l-13.46,0.84l-1.68-32.4c30.57-7.29,58.7-10.94,84.37-10.94
		c25.67,0,44.18,5.54,55.54,16.62C1032.85,218.41,1038.53,236.01,1038.53,260.14z M944.27,312.31
		c-19.36,1.68-29.03,12.2-29.03,31.56s8.55,29.03,25.67,29.03c14.02,0,28.89-2.24,44.6-6.73l7.57-2.52v-55.96L944.27,312.31z"/>
	<path style="&st2;" d="M1075.97,195.34h48.81l41.24,72.79l41.66-72.79h48.81l-62.7,103.51l62.7,106.88h-48.81l-41.66-71.95
		l-41.24,71.95h-48.81l61.01-105.62L1075.97,195.34z"/>
	<path style="&st1;" d="M1641.48,117.49h48.81l-70.69,288.23h-91.73l-70.69-288.23h48.81l57.23,247h21.04L1641.48,117.49z"/>
	<path style="&st1;" d="M1725.42,218.06c14.44-18.23,38.5-27.35,72.16-27.35c33.66,0,57.71,9.12,72.16,27.35
		c14.44,18.24,21.67,45.59,21.67,82.05c0,36.47-7.01,63.96-21.04,82.47c-14.03,18.51-38.29,27.77-72.79,27.77
		c-34.5,0-58.77-9.26-72.79-27.77c-14.03-18.51-21.04-46-21.04-82.47C1703.75,263.65,1710.97,236.3,1725.42,218.06z M1759.72,354.81
		c6.45,11.22,19.07,16.83,37.87,16.83c18.79,0,31.41-5.61,37.87-16.83c6.45-11.22,9.68-29.59,9.68-55.12
		c0-25.52-3.44-43.62-10.31-54.28c-6.88-10.66-19.29-15.99-37.24-15.99c-17.96,0-30.37,5.33-37.24,15.99
		c-6.88,10.66-10.31,28.76-10.31,54.28C1750.04,325.22,1753.26,343.59,1759.72,354.81z"/>
	<path style="&st1;" d="M1939.39,405.72V107.81h45.87v297.91H1939.39z"/>
	<path style="&st1;" d="M2156.51,234.47h-58.07v92.57c0,17.11,1.26,28.47,3.79,34.08c2.52,5.62,8.97,8.42,19.36,8.42l34.5-1.26
		l2.1,36.61c-18.8,3.64-33.1,5.47-42.92,5.47c-23.85,0-40.18-5.47-49.02-16.41c-8.84-10.94-13.25-31.56-13.25-61.85v-97.62h-26.93
		v-39.13H2053v-61.01h45.44v61.01h58.07V234.47z"/>
	<path style="&st1;" d="M2339.96,238.68c-33.1-4.48-57.09-6.73-71.95-6.73c-14.87,0-25.18,1.76-30.93,5.26
		c-5.75,3.51-8.63,9.05-8.63,16.62c0,7.57,3.16,12.91,9.47,15.99c6.31,3.09,21.18,6.67,44.6,10.73
		c23.42,4.07,40.04,10.45,49.86,19.15c9.82,8.7,14.73,24.13,14.73,46.29c0,22.16-7.09,38.44-21.25,48.81
		c-14.17,10.38-34.86,15.57-62.06,15.57c-17.11,0-38.71-2.39-64.8-7.15l-13.04-2.1l1.68-38.29c33.66,4.49,57.92,6.73,72.79,6.73
		c14.87,0,25.46-1.82,31.77-5.47c6.31-3.64,9.47-9.68,9.47-18.09s-3.02-14.23-9.05-17.46c-6.04-3.22-20.48-6.73-43.34-10.52
		c-22.87-3.79-39.63-9.74-50.28-17.88c-10.66-8.13-15.99-23-15.99-44.6c0-21.6,7.36-37.73,22.09-48.39
		c14.73-10.66,33.59-15.99,56.59-15.99c17.95,0,39.97,2.25,66.06,6.73l13.04,2.52L2339.96,238.68z"/>
</g>
<g>
	<rect x="1375.76" y="293.27" style="&st2;" width="81.73" height="41.66"/>
	<rect x="1294.03" y="293.27" style="&st1;" width="81.73" height="41.66"/>
</g>
</svg>
