<?xml version="1.0" encoding="utf-8"?>
<!-- Generator: Adobe Illustrator 24.0.1, SVG Export Plug-In . SVG Version: 6.00 Build 0)  -->
<!DOCTYPE svg PUBLIC "-//W3C//DTD SVG 1.1//EN" "http://www.w3.org/Graphics/SVG/1.1/DTD/svg11.dtd" [
	<!ENTITY st0 "fill:none;">
	<!ENTITY st1 "fill:#1A9DD9;">
	<!ENTITY st2 "fill:#E52421;">
	<!ENTITY st3 "fill:#444495;">
	<!ENTITY st4 "fill:#121212;">
]>
<svg version="1.1" id="Layer_1" xmlns="http://www.w3.org/2000/svg" xmlns:xlink="http://www.w3.org/1999/xlink" x="0px" y="0px"
	 viewBox="0 0 1200 900" style="enable-background:new 0 0 1200 900;" xml:space="preserve">
<line style="&st0;" x1="976.46" y1="855.88" x2="976.46" y2="791.23"/>
<path style="&st1;" d="M469.18,369.67l130.17,0.98l-41.59,226.5c-113.85-19.51-200.47-118.68-200.47-238.08
	c0-133.42,108.15-241.58,241.58-241.58c7.21,0,14.33,0.32,21.38,0.93l-133.13,219.3L469.18,369.67z"/>
<path style="&st2;" d="M840.44,359.07c0,133.41-108.16,241.57-241.58,241.57c-6.43,0-12.81-0.25-19.11-0.75L728.54,316.3
	l-121.74-0.92l39.55-193.23C757.02,144.2,840.44,241.9,840.44,359.07z"/>
<path style="&st3;" d="M728.54,316.3L579.75,599.89c-7.43-0.58-14.77-1.49-22-2.74l41.59-226.5l-130.17-0.98l17.93-31.96
	l133.13-219.3c8.84,0.77,17.55,2.03,26.09,3.73l-39.55,193.23L728.54,316.3z"/>
<g>
	<g>
		<polygon style="&st4;" points="728.54,316.3 579.75,599.89 545.14,665.88 557.76,597.15 599.35,370.65 469.18,369.67 
			487.12,337.72 620.25,118.42 660.41,52.25 657.75,66.4 646.34,122.15 606.79,315.38 		"/>
	</g>
</g>
<g>
	<path style="&st2;" d="M245.55,810.3V707.55h28.95l22.95,80.25l22.95-80.25h29.1V810.3h-16.8V726h-2.25l-24.3,80.1h-17.4
		l-24.3-80.1h-2.25v84.3H245.55z"/>
	<path style="&st2;" d="M364.2,810.3l25.35-102.75h33.15l25.5,102.75h-16.8l-5.55-22.05H386.4l-5.55,22.05H364.2z M402.45,721.5
		l-12.75,52.05h32.85l-12.6-52.05H402.45z"/>
	<path style="&st2;" d="M471.75,707.55l22.05,40.5l22.35-40.5h17.55l-30.45,52.2l30.45,50.55h-18.6l-22.05-38.7l-22.5,38.7H453
		l30.6-49.65l-30.6-53.1H471.75z"/>
	<path style="&st1;" d="M637.34,707.55h17.4l-25.2,102.75h-32.7l-25.2-102.75h17.4l20.4,88.05h7.5L637.34,707.55z"/>
	<path style="&st1;" d="M737.77,799.35c-6.15,8.4-16.98,12.6-32.47,12.6c-15.5,0-26.35-4.22-32.55-12.68
		c-6.2-8.45-9.3-21.72-9.3-39.82c0-18.1,3.13-31.55,9.38-40.35c6.25-8.8,17.07-13.2,32.48-13.2c15.4,0,26.2,4.38,32.4,13.13
		c6.2,8.75,9.3,22.23,9.3,40.43C747,777.65,743.92,790.95,737.77,799.35z M685.8,788.55c3.4,5.9,9.9,8.85,19.5,8.85
		c9.6,0,16.07-2.9,19.42-8.7c3.35-5.8,5.03-15.53,5.03-29.18c0-13.65-1.73-23.57-5.18-29.77c-3.45-6.2-9.88-9.3-19.27-9.3
		c-9.4,0-15.85,3.1-19.35,9.3c-3.5,6.2-5.25,16.08-5.25,29.63C680.7,772.93,682.39,782.65,685.8,788.55z"/>
	<path style="&st1;" d="M823.94,810.3h-57.6V707.55h16.65v87.9h40.95V810.3z"/>
	<path style="&st1;" d="M815.09,722.4v-14.85h75v14.85h-28.95v87.9h-16.8v-87.9H815.09z"/>
	<path style="&st1;" d="M934.04,720.45c-12.7,0-19.05,4.45-19.05,13.35c0,4.6,1.5,7.88,4.5,9.83s9.62,4.35,19.88,7.2
		c10.25,2.85,17.47,6.25,21.67,10.2c4.2,3.95,6.3,10.18,6.3,18.68c0,10.8-3.08,18.88-9.22,24.22c-6.15,5.35-14.53,8.03-25.13,8.03
		c-8.5,0-17.9-1-28.2-3l-5.4-1.05l1.65-13.35c13.5,1.8,23.8,2.7,30.9,2.7c12.4,0,18.6-5.5,18.6-16.5c0-4.3-1.4-7.47-4.2-9.53
		c-2.8-2.05-9.1-4.3-18.9-6.75c-9.8-2.45-17.1-5.82-21.9-10.13c-4.8-4.3-7.2-11.1-7.2-20.4c0-9.3,3.02-16.32,9.08-21.08
		c6.05-4.75,14.42-7.13,25.13-7.13c7.7,0,16.8,0.9,27.3,2.7l5.25,0.9l-1.35,13.5C949.74,721.25,939.84,720.45,934.04,720.45z"/>
</g>
</svg>
