<?xml version="1.0" encoding="utf-8"?>
<!-- Generator: Adobe Illustrator 24.0.1, SVG Export Plug-In . SVG Version: 6.00 Build 0)  -->
<!DOCTYPE svg PUBLIC "-//W3C//DTD SVG 1.1//EN" "http://www.w3.org/Graphics/SVG/1.1/DTD/svg11.dtd" [
	<!ENTITY st0 "fill:#E52723;">
	<!ENTITY st1 "fill:#203C89;">
	<!ENTITY st2 "fill:#444495;">
	<!ENTITY st3 "fill:#FFED00;">
]>
<svg version="1.1" id="Layer_1" xmlns="http://www.w3.org/2000/svg" xmlns:xlink="http://www.w3.org/1999/xlink" x="0px" y="0px"
	 viewBox="0 0 1101.98 658.75" style="enable-background:new 0 0 1101.98 658.75;" xml:space="preserve">
<g>
	<path style="&st0;" d="M145.77,338.78l128.54,0.97l-41.07,223.68C120.81,544.15,35.27,446.22,35.27,328.3
		c0-131.76,106.8-238.57,238.57-238.57c7.12,0,14.15,0.31,21.11,0.92L163.48,307.22L145.77,338.78z"/>
	<path style="&st1;" d="M512.4,328.3c0,131.75-106.81,238.56-238.57,238.56c-6.35,0-12.65-0.25-18.87-0.74l146.93-280.05
		l-120.23-0.9l39.06-190.82C430.02,116.12,512.4,212.59,512.4,328.3z"/>
	<path style="&st2;" d="M401.89,286.07L254.96,566.12c-7.34-0.57-14.59-1.48-21.72-2.7l41.07-223.68l-128.54-0.97l17.71-31.56
		L294.94,90.65c8.73,0.77,17.33,2,25.77,3.69l-39.06,190.82L401.89,286.07z"/>
	<g>
		<g>
			<polygon style="&st3;" points="401.89,286.07 254.96,566.12 220.77,631.29 233.24,563.42 274.31,339.75 145.77,338.78 
				163.48,307.22 294.94,90.65 334.61,25.31 331.98,39.29 320.71,94.34 281.66,285.16 			"/>
		</g>
	</g>
</g>
<g>
	<path style="&st1;" d="M640.13,249.4V85h46.32l36.72,128.4L759.89,85h46.56v164.4h-26.88V114.52h-3.6l-38.88,128.16h-27.84
		l-38.88-128.16h-3.6V249.4H640.13z"/>
	<path style="&st1;" d="M929.81,166.36v54.72c0.16,3.52,1.08,6.12,2.76,7.8c1.68,1.68,4.28,2.76,7.8,3.24l-0.72,19.92
		c-13.76,0-24.4-2.96-31.92-8.88c-12.8,5.92-25.68,8.88-38.64,8.88c-23.84,0-35.76-12.72-35.76-38.16c0-12.16,3.24-20.96,9.72-26.4
		c6.48-5.44,16.44-8.72,29.88-9.84l30.96-2.64v-8.64c0-6.4-1.4-10.88-4.2-13.44c-2.8-2.56-6.92-3.84-12.36-3.84
		c-10.24,0-23.04,0.64-38.4,1.92l-7.68,0.48L840.29,133c17.44-4.16,33.48-6.24,48.12-6.24c14.64,0,25.2,3.16,31.68,9.48
		C926.57,142.56,929.81,152.6,929.81,166.36z M876.05,196.12c-11.04,0.96-16.56,6.96-16.56,18s4.88,16.56,14.64,16.56
		c8,0,16.48-1.28,25.44-3.84l4.32-1.44v-31.92L876.05,196.12z"/>
	<path style="&st1;" d="M951.17,129.4h27.84l23.52,41.52l23.76-41.52h27.84l-35.76,59.04l35.76,60.96h-27.84l-23.76-41.04
		l-23.52,41.04h-27.84l34.8-60.24L951.17,129.4z"/>
	<path style="&st0;" d="M646.37,373h27.84l-40.32,164.4h-52.32L541.25,373h27.84l32.64,140.88h12L646.37,373z"/>
	<path style="&st0;" d="M694.25,430.36c8.24-10.4,21.96-15.6,41.16-15.6c19.2,0,32.92,5.2,41.16,15.6c8.24,10.4,12.36,26,12.36,46.8
		c0,20.8-4,36.48-12,47.04c-8,10.56-21.84,15.84-41.52,15.84c-19.68,0-33.52-5.28-41.52-15.84c-8-10.56-12-26.24-12-47.04
		C681.89,456.36,686.01,440.76,694.25,430.36z M713.81,508.36c3.68,6.4,10.88,9.6,21.6,9.6c10.72,0,17.92-3.2,21.6-9.6
		c3.68-6.4,5.52-16.88,5.52-31.44c0-14.56-1.96-24.88-5.88-30.96c-3.92-6.08-11-9.12-21.24-9.12c-10.24,0-17.32,3.04-21.24,9.12
		c-3.92,6.08-5.88,16.4-5.88,30.96C708.29,491.48,710.13,501.96,713.81,508.36z"/>
	<path style="&st0;" d="M816.29,537.4V367.48h26.16V537.4H816.29z"/>
	<path style="&st0;" d="M940.13,439.72h-33.12v52.8c0,9.76,0.72,16.24,2.16,19.44c1.44,3.2,5.12,4.8,11.04,4.8l19.68-0.72l1.2,20.88
		c-10.72,2.08-18.88,3.12-24.48,3.12c-13.6,0-22.92-3.12-27.96-9.36c-5.04-6.24-7.56-18-7.56-35.28v-55.68h-15.36V417.4h15.36v-34.8
		h25.92v34.8h33.12V439.72z"/>
	<path style="&st0;" d="M1044.76,442.12c-18.88-2.56-32.56-3.84-41.04-3.84c-8.48,0-14.36,1-17.64,3c-3.28,2-4.92,5.16-4.92,9.48
		c0,4.32,1.8,7.36,5.4,9.12c3.6,1.76,12.08,3.8,25.44,6.12c13.36,2.32,22.84,5.96,28.44,10.92c5.6,4.96,8.4,13.76,8.4,26.4
		c0,12.64-4.04,21.92-12.12,27.84c-8.08,5.92-19.88,8.88-35.4,8.88c-9.76,0-22.08-1.36-36.96-4.08l-7.44-1.2l0.96-21.84
		c19.2,2.56,33.04,3.84,41.52,3.84c8.48,0,14.52-1.04,18.12-3.12c3.6-2.08,5.4-5.52,5.4-10.32s-1.72-8.12-5.16-9.96
		c-3.44-1.84-11.68-3.84-24.72-6c-13.04-2.16-22.6-5.56-28.68-10.2c-6.08-4.64-9.12-13.12-9.12-25.44c0-12.32,4.2-21.52,12.6-27.6
		c8.4-6.08,19.16-9.12,32.28-9.12c10.24,0,22.8,1.28,37.68,3.84l7.44,1.44L1044.76,442.12z"/>
</g>
</svg>
